<svg width="30" height="30" viewBox="0 0 30 30" xmlns="http://www.w3.org/2000/svg">
  <path d="M19.3 13.4c0-.2 0-.3-.2-.5 0-.2-.2-.3-.4-.3-1.3 0-2.5.2-3.6.6-1 .3-2 .8-3 1.5l-2.5 2.4-.2.5c0 .2 0 .4.2.5 0 .2.3.2.5.2s.3 0 .5-.2l.8-.8.8-.7c1-1 2-1.6 3-2 1-.4 2.2-.6 3.6-.6h.5l.3-.6zm5.5 0c-.4 1.6-1 3-2 4.3-1 1-2.4 2-4 3-1.7.7-3.3 1-5 1-1 0-2 0-3.2-.4l-1-.4c-.5-.4-.8-.6-1-.6l-.4.4-.5.8-.6.8-.6.3h-.6c0-.2-.2-.3-.3-.4l-.3-.4v-.3c-.2 0-.2 0-.2-.2 0-.4 0-.7.3-1l.8-.7 1-.6.2-.5v-.5c-.3-.2-.3-.4-.3-.5-.2-.3-.2-.7-.2-1 0-1 0-1.8.5-2.6.3-.7.7-1.3 1.3-2l2-1.5c.6-.4 1.4-.8 2.2-1 .4-.2 1-.3 1.6-.3h2c.7-.2 1.3-.2 2-.2.6 0 1.3 0 1.8-.3.6 0 1-.3 1.3-.6 0 0 .2 0 .3-.2l.3-.3c.2 0 .3-.2.4-.3h.4c.2-.2.4-.2.5-.2.3 0 .6.2.8.5.4.4.5.8.6 1.3L25 10v1.2c0 .7 0 1.4-.2 2.2z" fill="#F00" fill-rule="evenodd"/>
</svg>
