<svg width="30" height="30" viewBox="0 0 30 30" fill="none" xmlns="http://www.w3.org/2000/svg">
<path fill-rule="evenodd" clip-rule="evenodd" d="M23.5387 10.2496H20.6161C20.6161 11.7934 20.3348 13.1603 19.7703 14.3571C20.8446 14.1422 21.7397 13.7257 22.4593 13.1058C23.1788 12.486 23.5387 11.8876 23.5387 11.3124V10.2496ZM10.3854 10.2496H7.46119V11.3124C7.46119 11.8876 7.82096 12.486 8.54053 13.1058C9.26006 13.7257 10.157 14.1422 11.2295 14.3571C10.6668 13.1603 10.3854 11.7934 10.3854 10.2496ZM24.9999 11.3124C24.9999 11.8364 24.843 12.3637 24.5259 12.8959C24.2104 13.4265 23.7842 13.9058 23.247 14.3339C22.7116 14.762 22.0518 15.1223 21.2725 15.4132C20.4916 15.7058 19.6715 15.8694 18.8121 15.9058C18.4915 16.3042 18.13 16.6545 17.7276 16.957C17.4378 17.2083 17.2383 17.4761 17.1274 17.7604C17.0166 18.0447 16.962 18.3736 16.962 18.7504C16.962 19.1488 17.078 19.4843 17.3099 19.7571C17.5418 20.0314 17.9135 20.167 18.4233 20.167C18.9945 20.167 19.5026 20.3355 19.9477 20.6711C20.3927 21.0067 20.6161 21.4298 20.6161 21.9389V22.6463C20.6161 22.7488 20.582 22.8347 20.5138 22.9008C20.4456 22.967 20.3569 23 20.2495 23H10.7503C10.6446 23 10.556 22.967 10.4878 22.9008C10.4196 22.8347 10.3854 22.7488 10.3854 22.6463V21.9389C10.3854 21.4298 10.6088 21.0067 11.0538 20.6711C11.4972 20.3355 12.007 20.167 12.5765 20.167C13.088 20.167 13.458 20.0314 13.6916 19.7571C13.9218 19.4843 14.0395 19.1488 14.0395 18.7504C14.0395 18.3736 13.9832 18.0447 13.8741 17.7604C13.7633 17.4761 13.5621 17.2083 13.2739 16.957C12.8698 16.6545 12.5083 16.3042 12.1894 15.9058C11.3284 15.8694 10.5082 15.7058 9.72896 15.4132C8.94802 15.1223 8.28985 14.762 7.75275 14.3339C7.21735 13.9058 6.78938 13.4265 6.47391 12.8959C6.15849 12.3637 5.99991 11.8364 5.99991 11.3124V9.89587C5.99991 9.6 6.10735 9.35044 6.32049 9.14381C6.53363 8.93723 6.7928 8.83308 7.09631 8.83308H10.3854V7.77028C10.3854 7.28269 10.5645 6.8678 10.9225 6.52069C11.2789 6.17358 11.7103 6 12.2116 6H18.7882C19.2912 6 19.7209 6.17358 20.079 6.52069C20.437 6.8678 20.6161 7.28269 20.6161 7.77028V8.83308H23.9035C24.2087 8.83308 24.4662 8.93723 24.681 9.14381C24.8925 9.35044 24.9999 9.6 24.9999 9.89587V11.3124Z" fill="#FF0000"/>
</svg>
