<svg width="131" height="36" viewBox="0 0 131 36" xmlns="http://www.w3.org/2000/svg">
  <title>
    element/logo small
  </title>
  <g fill="none" fill-rule="evenodd">
    <path d="M121.7 15.4V7h-4.4V5h11.3v2H124v8.4h-2.3zm-17.6-3c1.4.8 3.2 1.3 5.3 1.3 1.7 0 3.4-.8 3.4-1.7 0-2-9.4 1-9.4-4 0-1.7 2-3.3 5.6-3.3 2.2 0 4 .4 5.5 1.3l-.8 1.8c-1.2-.8-3.5-1-5-1-1.4 0-3.3.4-3.3 1 0 3 9.8-.8 9.8 4.3 0 2-2 3.7-6 3.7-2.6 0-4.5-.5-5.8-1.3l.7-2zM94 7L92 11h4.6L94 6.8zm4.7 8.7l-1.2-2.2h-6.7l-1.2 2.2h-2.8L92.5 5h3.2l5.6 10.5h-2.6zm-24-.2V5h2.4V13H85v2h-10zm-5.2-7c0-.7-.5-1.2-1.7-1.2h-5.5v2.7h5c1.4 0 2.2-.5 2.2-1.3zm-9.6 7V5h8c3.2 0 4 1.4 4 3.3 0 2-1 3.4-4 3.4h-5.7v3.7H60zM88 26c0-3 3-5 6.7-5 4.7 0 6 2.5 6 2.5l-2 1C98 24 97 23 94.7 23c-2.5 0-4.2 1.2-4.2 3 0 2 1.7 3.3 4.2 3.3 3.3 0 4.2-2 4.2-2h-5v-1.8h7.6s.5 5.7-6.7 5.7c-4.2 0-7-2-7-5zm-13.5 5v-9.8h11v2H77v2h7.2v1.7h-7v2h8.6v2H74.5zm36-8l-2.2 4h4.6l-2.4-4zm4.6 8l-1-2h-6.7l-1.2 2h-2.6l5.7-9.8h3.2l5.6 10H115zm5 0v-9.8h2.4V29h7.6v2h-10zm-50.6-6.5c0-.8-.5-1.2-1.7-1.2h-5.4v2.4h5c1.3 0 2-.4 2-1.2zM60 31v-9.8h7.8c3.2 0 4 1.4 4 3.2 0 1.3-.4 2.4-2 3-.2 0 1.7 3.6 1.7 3.6H69l-1.7-3.4h-5V31H60z" fill="#1D1C1C"/>
    <path d="M24.6 28.7c-12.2 0-24.6.5-24.6.5v3.5s10.4-.5 24.6-.5c14.3 0 24.7.5 24.7.5v-3.5s-12.4-.5-24.7-.5zM1.4 3v10L4 17v6.7h-3V27l10.8-.4V13L1.4 3zM48 13V3L37.2 13v13.6c4.8 0 8.7.3 10.7.3v-3.5h-3v-6.7l3-3.7zM27.4 23h-5.7v-6.2l3-3.7 2.7 3.8V23zM24.7 3L14 13v13.6H35.3V13L24.7 3z" fill="#E8B300"/>
  </g>
</svg>
