<svg width="21" height="24" viewBox="0 0 21 24" xmlns="http://www.w3.org/2000/svg">
  <path d="M9.7 5c0-.3-.4-.7-.8-.7-.3 0-.5 0-.7.2L4 8.8H1c-.4 0-.8.3-.8.8v4.8c0 .5.4.8.8.8H4l4.3 4.3.6.2c.3 0 .7-.4.7-.8V5zm4.8 7c0 1.3-.7 2.5-2 3h-.2c-.5 0-.8-.3-.8-.8 0-1 1.4-.7 1.4-2.2 0-1.5-1.5-1.3-1.5-2.2 0-.5.3-.8.8-.8h.3c1.2.5 2 1.7 2 3zm3.3 0c0 2.6-1.6 5-4 6h-.3c-.4 0-.8-.3-.8-.8 0-.3.2-.6.5-.7l1-.6c1.2-1 2-2.5 2-4s-.8-3-2-4c-.3 0-.6-.3-1-.5-.3 0-.5-.4-.5-.7 0-.5.4-.8.8-.8h.4c2.2 1 3.8 3.4 3.8 6zm3.2 0c0 4-2.3 7.4-6 9H15c-.4 0-.8-.4-.8-.8s.2-.6.5-.8c.2 0 .4 0 .6-.2.4-.2.8-.4 1-.7 2.2-1.5 3.4-4 3.4-6.5 0-2.6-1.2-5-3.3-6.5-.2-.3-.6-.5-1-.7 0 0-.3 0-.5-.2-.3-.2-.5-.4-.5-.8s.4-.8.8-.8h.3c3.7 1.6 6 5 6 9z" fill="#E8B300" fill-rule="evenodd"/>
</svg>
